<svg width="75" height="16" viewBox="0 0 75 16" fill="none" xmlns="http://www.w3.org/2000/svg">
<mask id="path-1-outside-1_1_174" maskUnits="userSpaceOnUse" x="0.160004" y="-0.23999" width="75" height="16" fill="black">
<rect fill="white" x="0.160004" y="-0.23999" width="75" height="16"/>
<path d="M6.14 15.24C5.15334 15.24 4.28667 15.06 3.54 14.7C2.80667 14.34 2.22667 13.8267 1.8 13.16C1.38667 12.4933 1.17334 11.7 1.16 10.78H3.4C3.41334 11.4867 3.65334 12.0933 4.12 12.6C4.6 13.0933 5.26667 13.34 6.12 13.34C6.90667 13.34 7.52 13.16 7.96 12.8C8.4 12.4267 8.62 11.9467 8.62 11.36C8.62 10.8667 8.48667 10.46 8.22 10.14C7.96667 9.80668 7.56667 9.51334 7.02 9.26001C6.47334 8.99334 5.76667 8.72001 4.9 8.44001C3.74 8.06668 2.88667 7.55334 2.34 6.90001C1.79334 6.23334 1.52 5.42001 1.52 4.46001C1.52 3.35334 1.92 2.46001 2.72 1.78001C3.52 1.10001 4.62 0.76001 6.02 0.76001C7.38 0.76001 8.47334 1.11334 9.3 1.82001C10.1267 2.51334 10.5533 3.48001 10.58 4.72001H8.32C8.32 4.38668 8.22667 4.06668 8.04 3.76001C7.85334 3.44001 7.58667 3.18001 7.24 2.98001C6.89334 2.76668 6.46667 2.66001 5.96 2.66001C5.33334 2.64668 4.80667 2.80001 4.38 3.12001C3.95334 3.42668 3.74 3.84668 3.74 4.38001C3.74 5.03334 4 5.54668 4.52 5.92001C5.04 6.28001 5.88667 6.65334 7.06 7.04001C7.79334 7.28001 8.44 7.57334 9 7.92001C9.57334 8.25334 10.02 8.68668 10.34 9.22001C10.6733 9.74001 10.84 10.4067 10.84 11.22C10.84 11.9667 10.6533 12.6467 10.28 13.26C9.90667 13.86 9.36667 14.34 8.66 14.7C7.96667 15.06 7.12667 15.24 6.14 15.24Z"/>
<path d="M17.4122 15V1.00001H22.1522C23.2189 1.00001 24.0989 1.18668 24.7922 1.56001C25.4855 1.92001 25.9989 2.42001 26.3322 3.06001C26.6655 3.70001 26.8322 4.43334 26.8322 5.26001C26.8322 6.08668 26.6655 6.82001 26.3322 7.46001C25.9989 8.10001 25.4855 8.60668 24.7922 8.98001C24.0989 9.34001 23.2189 9.52001 22.1522 9.52001H19.5322V15H17.4122ZM19.5322 7.62001H22.0522C22.9589 7.62001 23.6189 7.40668 24.0322 6.98001C24.4589 6.55334 24.6722 5.98001 24.6722 5.26001C24.6722 4.55334 24.4589 3.98668 24.0322 3.56001C23.6189 3.12001 22.9589 2.90001 22.0522 2.90001H19.5322V7.62001Z"/>
<path d="M37.9844 15.24C36.851 15.24 35.871 14.9467 35.0444 14.36C34.2177 13.7733 33.5844 12.94 33.1444 11.86C32.7044 10.78 32.4844 9.49334 32.4844 8.00001C32.4844 6.50668 32.7044 5.22001 33.1444 4.14001C33.5844 3.06001 34.2177 2.22668 35.0444 1.64001C35.871 1.05334 36.851 0.76001 37.9844 0.76001C39.131 0.76001 40.111 1.05334 40.9244 1.64001C41.751 2.22668 42.3844 3.06001 42.8244 4.14001C43.2644 5.22001 43.4844 6.50668 43.4844 8.00001C43.4844 9.49334 43.2644 10.78 42.8244 11.86C42.3844 12.94 41.751 13.7733 40.9244 14.36C40.111 14.9467 39.131 15.24 37.9844 15.24ZM37.9844 13.24C38.9844 13.24 39.791 12.7933 40.4044 11.9C41.0177 10.9933 41.3244 9.69334 41.3244 8.00001C41.3244 6.30668 41.0177 5.01334 40.4044 4.12001C39.791 3.21334 38.9844 2.76001 37.9844 2.76001C36.971 2.76001 36.1577 3.21334 35.5444 4.12001C34.9444 5.01334 34.6444 6.30668 34.6444 8.00001C34.6444 9.69334 34.9444 10.9933 35.5444 11.9C36.1577 12.7933 36.971 13.24 37.9844 13.24Z"/>
<path d="M52.9166 15V2.90001H49.1566V1.00001H58.7966V2.90001H55.0366V15H52.9166Z"/>
<path d="M70.1088 15.24C69.1221 15.24 68.2554 15.06 67.5088 14.7C66.7754 14.34 66.1954 13.8267 65.7688 13.16C65.3554 12.4933 65.1421 11.7 65.1288 10.78H67.3688C67.3821 11.4867 67.6221 12.0933 68.0888 12.6C68.5688 13.0933 69.2354 13.34 70.0888 13.34C70.8754 13.34 71.4888 13.16 71.9288 12.8C72.3688 12.4267 72.5888 11.9467 72.5888 11.36C72.5888 10.8667 72.4554 10.46 72.1888 10.14C71.9354 9.80668 71.5354 9.51334 70.9888 9.26001C70.4421 8.99334 69.7354 8.72001 68.8688 8.44001C67.7087 8.06668 66.8554 7.55334 66.3088 6.90001C65.7621 6.23334 65.4888 5.42001 65.4888 4.46001C65.4888 3.35334 65.8887 2.46001 66.6888 1.78001C67.4888 1.10001 68.5888 0.76001 69.9888 0.76001C71.3488 0.76001 72.4421 1.11334 73.2688 1.82001C74.0954 2.51334 74.5221 3.48001 74.5488 4.72001H72.2888C72.2888 4.38668 72.1954 4.06668 72.0088 3.76001C71.8221 3.44001 71.5554 3.18001 71.2088 2.98001C70.8621 2.76668 70.4354 2.66001 69.9288 2.66001C69.3021 2.64668 68.7754 2.80001 68.3488 3.12001C67.9221 3.42668 67.7088 3.84668 67.7088 4.38001C67.7088 5.03334 67.9688 5.54668 68.4888 5.92001C69.0088 6.28001 69.8554 6.65334 71.0288 7.04001C71.7621 7.28001 72.4088 7.57334 72.9688 7.92001C73.5421 8.25334 73.9888 8.68668 74.3088 9.22001C74.6421 9.74001 74.8088 10.4067 74.8088 11.22C74.8088 11.9667 74.6221 12.6467 74.2488 13.26C73.8754 13.86 73.3354 14.34 72.6288 14.7C71.9354 15.06 71.0954 15.24 70.1088 15.24Z"/>
</mask>
<path d="M6.14 15.24C5.15334 15.24 4.28667 15.06 3.54 14.7C2.80667 14.34 2.22667 13.8267 1.8 13.16C1.38667 12.4933 1.17334 11.7 1.16 10.78H3.4C3.41334 11.4867 3.65334 12.0933 4.12 12.6C4.6 13.0933 5.26667 13.34 6.12 13.34C6.90667 13.34 7.52 13.16 7.96 12.8C8.4 12.4267 8.62 11.9467 8.62 11.36C8.62 10.8667 8.48667 10.46 8.22 10.14C7.96667 9.80668 7.56667 9.51334 7.02 9.26001C6.47334 8.99334 5.76667 8.72001 4.9 8.44001C3.74 8.06668 2.88667 7.55334 2.34 6.90001C1.79334 6.23334 1.52 5.42001 1.52 4.46001C1.52 3.35334 1.92 2.46001 2.72 1.78001C3.52 1.10001 4.62 0.76001 6.02 0.76001C7.38 0.76001 8.47334 1.11334 9.3 1.82001C10.1267 2.51334 10.5533 3.48001 10.58 4.72001H8.32C8.32 4.38668 8.22667 4.06668 8.04 3.76001C7.85334 3.44001 7.58667 3.18001 7.24 2.98001C6.89334 2.76668 6.46667 2.66001 5.96 2.66001C5.33334 2.64668 4.80667 2.80001 4.38 3.12001C3.95334 3.42668 3.74 3.84668 3.74 4.38001C3.74 5.03334 4 5.54668 4.52 5.92001C5.04 6.28001 5.88667 6.65334 7.06 7.04001C7.79334 7.28001 8.44 7.57334 9 7.92001C9.57334 8.25334 10.02 8.68668 10.34 9.22001C10.6733 9.74001 10.84 10.4067 10.84 11.22C10.84 11.9667 10.6533 12.6467 10.28 13.26C9.90667 13.86 9.36667 14.34 8.66 14.7C7.96667 15.06 7.12667 15.24 6.14 15.24Z" fill="#212121"/>
<path d="M17.4122 15V1.00001H22.1522C23.2189 1.00001 24.0989 1.18668 24.7922 1.56001C25.4855 1.92001 25.9989 2.42001 26.3322 3.06001C26.6655 3.70001 26.8322 4.43334 26.8322 5.26001C26.8322 6.08668 26.6655 6.82001 26.3322 7.46001C25.9989 8.10001 25.4855 8.60668 24.7922 8.98001C24.0989 9.34001 23.2189 9.52001 22.1522 9.52001H19.5322V15H17.4122ZM19.5322 7.62001H22.0522C22.9589 7.62001 23.6189 7.40668 24.0322 6.98001C24.4589 6.55334 24.6722 5.98001 24.6722 5.26001C24.6722 4.55334 24.4589 3.98668 24.0322 3.56001C23.6189 3.12001 22.9589 2.90001 22.0522 2.90001H19.5322V7.62001Z" fill="#212121"/>
<path d="M37.9844 15.24C36.851 15.24 35.871 14.9467 35.0444 14.36C34.2177 13.7733 33.5844 12.94 33.1444 11.86C32.7044 10.78 32.4844 9.49334 32.4844 8.00001C32.4844 6.50668 32.7044 5.22001 33.1444 4.14001C33.5844 3.06001 34.2177 2.22668 35.0444 1.64001C35.871 1.05334 36.851 0.76001 37.9844 0.76001C39.131 0.76001 40.111 1.05334 40.9244 1.64001C41.751 2.22668 42.3844 3.06001 42.8244 4.14001C43.2644 5.22001 43.4844 6.50668 43.4844 8.00001C43.4844 9.49334 43.2644 10.78 42.8244 11.86C42.3844 12.94 41.751 13.7733 40.9244 14.36C40.111 14.9467 39.131 15.24 37.9844 15.24ZM37.9844 13.24C38.9844 13.24 39.791 12.7933 40.4044 11.9C41.0177 10.9933 41.3244 9.69334 41.3244 8.00001C41.3244 6.30668 41.0177 5.01334 40.4044 4.12001C39.791 3.21334 38.9844 2.76001 37.9844 2.76001C36.971 2.76001 36.1577 3.21334 35.5444 4.12001C34.9444 5.01334 34.6444 6.30668 34.6444 8.00001C34.6444 9.69334 34.9444 10.9933 35.5444 11.9C36.1577 12.7933 36.971 13.24 37.9844 13.24Z" fill="#212121"/>
<path d="M52.9166 15V2.90001H49.1566V1.00001H58.7966V2.90001H55.0366V15H52.9166Z" fill="#212121"/>
<path d="M70.1088 15.24C69.1221 15.24 68.2554 15.06 67.5088 14.7C66.7754 14.34 66.1954 13.8267 65.7688 13.16C65.3554 12.4933 65.1421 11.7 65.1288 10.78H67.3688C67.3821 11.4867 67.6221 12.0933 68.0888 12.6C68.5688 13.0933 69.2354 13.34 70.0888 13.34C70.8754 13.34 71.4888 13.16 71.9288 12.8C72.3688 12.4267 72.5888 11.9467 72.5888 11.36C72.5888 10.8667 72.4554 10.46 72.1888 10.14C71.9354 9.80668 71.5354 9.51334 70.9888 9.26001C70.4421 8.99334 69.7354 8.72001 68.8688 8.44001C67.7087 8.06668 66.8554 7.55334 66.3088 6.90001C65.7621 6.23334 65.4888 5.42001 65.4888 4.46001C65.4888 3.35334 65.8887 2.46001 66.6888 1.78001C67.4888 1.10001 68.5888 0.76001 69.9888 0.76001C71.3488 0.76001 72.4421 1.11334 73.2688 1.82001C74.0954 2.51334 74.5221 3.48001 74.5488 4.72001H72.2888C72.2888 4.38668 72.1954 4.06668 72.0088 3.76001C71.8221 3.44001 71.5554 3.18001 71.2088 2.98001C70.8621 2.76668 70.4354 2.66001 69.9288 2.66001C69.3021 2.64668 68.7754 2.80001 68.3488 3.12001C67.9221 3.42668 67.7088 3.84668 67.7088 4.38001C67.7088 5.03334 67.9688 5.54668 68.4888 5.92001C69.0088 6.28001 69.8554 6.65334 71.0288 7.04001C71.7621 7.28001 72.4088 7.57334 72.9688 7.92001C73.5421 8.25334 73.9888 8.68668 74.3088 9.22001C74.6421 9.74001 74.8088 10.4067 74.8088 11.22C74.8088 11.9667 74.6221 12.6467 74.2488 13.26C73.8754 13.86 73.3354 14.34 72.6288 14.7C71.9354 15.06 71.0954 15.24 70.1088 15.24Z" fill="#212121"/>
<path d="M6.14 15.24C5.15334 15.24 4.28667 15.06 3.54 14.7C2.80667 14.34 2.22667 13.8267 1.8 13.16C1.38667 12.4933 1.17334 11.7 1.16 10.78H3.4C3.41334 11.4867 3.65334 12.0933 4.12 12.6C4.6 13.0933 5.26667 13.34 6.12 13.34C6.90667 13.34 7.52 13.16 7.96 12.8C8.4 12.4267 8.62 11.9467 8.62 11.36C8.62 10.8667 8.48667 10.46 8.22 10.14C7.96667 9.80668 7.56667 9.51334 7.02 9.26001C6.47334 8.99334 5.76667 8.72001 4.9 8.44001C3.74 8.06668 2.88667 7.55334 2.34 6.90001C1.79334 6.23334 1.52 5.42001 1.52 4.46001C1.52 3.35334 1.92 2.46001 2.72 1.78001C3.52 1.10001 4.62 0.76001 6.02 0.76001C7.38 0.76001 8.47334 1.11334 9.3 1.82001C10.1267 2.51334 10.5533 3.48001 10.58 4.72001H8.32C8.32 4.38668 8.22667 4.06668 8.04 3.76001C7.85334 3.44001 7.58667 3.18001 7.24 2.98001C6.89334 2.76668 6.46667 2.66001 5.96 2.66001C5.33334 2.64668 4.80667 2.80001 4.38 3.12001C3.95334 3.42668 3.74 3.84668 3.74 4.38001C3.74 5.03334 4 5.54668 4.52 5.92001C5.04 6.28001 5.88667 6.65334 7.06 7.04001C7.79334 7.28001 8.44 7.57334 9 7.92001C9.57334 8.25334 10.02 8.68668 10.34 9.22001C10.6733 9.74001 10.84 10.4067 10.84 11.22C10.84 11.9667 10.6533 12.6467 10.28 13.26C9.90667 13.86 9.36667 14.34 8.66 14.7C7.96667 15.06 7.12667 15.24 6.14 15.24Z" stroke="#212121" stroke-width="0.4" mask="url(#path-1-outside-1_1_174)"/>
<path d="M17.4122 15V1.00001H22.1522C23.2189 1.00001 24.0989 1.18668 24.7922 1.56001C25.4855 1.92001 25.9989 2.42001 26.3322 3.06001C26.6655 3.70001 26.8322 4.43334 26.8322 5.26001C26.8322 6.08668 26.6655 6.82001 26.3322 7.46001C25.9989 8.10001 25.4855 8.60668 24.7922 8.98001C24.0989 9.34001 23.2189 9.52001 22.1522 9.52001H19.5322V15H17.4122ZM19.5322 7.62001H22.0522C22.9589 7.62001 23.6189 7.40668 24.0322 6.98001C24.4589 6.55334 24.6722 5.98001 24.6722 5.26001C24.6722 4.55334 24.4589 3.98668 24.0322 3.56001C23.6189 3.12001 22.9589 2.90001 22.0522 2.90001H19.5322V7.62001Z" stroke="#212121" stroke-width="0.4" mask="url(#path-1-outside-1_1_174)"/>
<path d="M37.9844 15.24C36.851 15.24 35.871 14.9467 35.0444 14.36C34.2177 13.7733 33.5844 12.94 33.1444 11.86C32.7044 10.78 32.4844 9.49334 32.4844 8.00001C32.4844 6.50668 32.7044 5.22001 33.1444 4.14001C33.5844 3.06001 34.2177 2.22668 35.0444 1.64001C35.871 1.05334 36.851 0.76001 37.9844 0.76001C39.131 0.76001 40.111 1.05334 40.9244 1.64001C41.751 2.22668 42.3844 3.06001 42.8244 4.14001C43.2644 5.22001 43.4844 6.50668 43.4844 8.00001C43.4844 9.49334 43.2644 10.78 42.8244 11.86C42.3844 12.94 41.751 13.7733 40.9244 14.36C40.111 14.9467 39.131 15.24 37.9844 15.24ZM37.9844 13.24C38.9844 13.24 39.791 12.7933 40.4044 11.9C41.0177 10.9933 41.3244 9.69334 41.3244 8.00001C41.3244 6.30668 41.0177 5.01334 40.4044 4.12001C39.791 3.21334 38.9844 2.76001 37.9844 2.76001C36.971 2.76001 36.1577 3.21334 35.5444 4.12001C34.9444 5.01334 34.6444 6.30668 34.6444 8.00001C34.6444 9.69334 34.9444 10.9933 35.5444 11.9C36.1577 12.7933 36.971 13.24 37.9844 13.24Z" stroke="#212121" stroke-width="0.4" mask="url(#path-1-outside-1_1_174)"/>
<path d="M52.9166 15V2.90001H49.1566V1.00001H58.7966V2.90001H55.0366V15H52.9166Z" stroke="#212121" stroke-width="0.4" mask="url(#path-1-outside-1_1_174)"/>
<path d="M70.1088 15.24C69.1221 15.24 68.2554 15.06 67.5088 14.7C66.7754 14.34 66.1954 13.8267 65.7688 13.16C65.3554 12.4933 65.1421 11.7 65.1288 10.78H67.3688C67.3821 11.4867 67.6221 12.0933 68.0888 12.6C68.5688 13.0933 69.2354 13.34 70.0888 13.34C70.8754 13.34 71.4888 13.16 71.9288 12.8C72.3688 12.4267 72.5888 11.9467 72.5888 11.36C72.5888 10.8667 72.4554 10.46 72.1888 10.14C71.9354 9.80668 71.5354 9.51334 70.9888 9.26001C70.4421 8.99334 69.7354 8.72001 68.8688 8.44001C67.7087 8.06668 66.8554 7.55334 66.3088 6.90001C65.7621 6.23334 65.4888 5.42001 65.4888 4.46001C65.4888 3.35334 65.8887 2.46001 66.6888 1.78001C67.4888 1.10001 68.5888 0.76001 69.9888 0.76001C71.3488 0.76001 72.4421 1.11334 73.2688 1.82001C74.0954 2.51334 74.5221 3.48001 74.5488 4.72001H72.2888C72.2888 4.38668 72.1954 4.06668 72.0088 3.76001C71.8221 3.44001 71.5554 3.18001 71.2088 2.98001C70.8621 2.76668 70.4354 2.66001 69.9288 2.66001C69.3021 2.64668 68.7754 2.80001 68.3488 3.12001C67.9221 3.42668 67.7088 3.84668 67.7088 4.38001C67.7088 5.03334 67.9688 5.54668 68.4888 5.92001C69.0088 6.28001 69.8554 6.65334 71.0288 7.04001C71.7621 7.28001 72.4088 7.57334 72.9688 7.92001C73.5421 8.25334 73.9888 8.68668 74.3088 9.22001C74.6421 9.74001 74.8088 10.4067 74.8088 11.22C74.8088 11.9667 74.6221 12.6467 74.2488 13.26C73.8754 13.86 73.3354 14.34 72.6288 14.7C71.9354 15.06 71.0954 15.24 70.1088 15.24Z" stroke="#212121" stroke-width="0.4" mask="url(#path-1-outside-1_1_174)"/>
</svg>
